:SAMPLES-PER-SECOND 30
:FULLY-SPECIFIED
:DEGREES
467
root  -1.77453 36.8789 14.6587 -179.963 -56.9618 179.458
RightUpLeg  -2.5526 -3.26231 -13.7901
RightLeg  41.361 0.921737 0.583192
RightFoot  -12.1773 0.141702 30.2407
RightToes  -1.39699e-009 0 -3.6325e-017
Spine  23.8175 4.90231 2.85781
Spine1  17.9256 0.574432 15.1669
HEad  -33.0049 -48.0082 20.4431
LeftShoulder1  0.966752 -3.97511 -5.08349
LeftArm  18.0074 -35.8243 -77.5333
LeftForeArm  9.05524 -77.0328 -71.5713
LeftHand  -1.04818 2.22931 37.6525
RightShoulder  1.90126 6.83584 11.2408
RightArm  18.4627 -4.24009 55.5382
RightForeArm  74.6651 68.2803 145.82
RightHand  -1.89021 2.52992 -27.4461
LeftUpLeg  -31.0868 -9.09201 3.65347
LeftLeg  36.8151 -9.42575 -7.13861
LeftFoot  -6.42482 0.30153 -6.12383
LeftToes  3.40148e-010 1.80944e-010 1.01921e-010
468
root  -1.7942 36.8718 14.6354 179.842 -56.8873 179.611
RightUpLeg  -2.50663 -3.09502 -13.6445
RightLeg  41.4366 0.801911 0.471665
RightFoot  -12.1077 0.123645 30.2758
RightToes  -1.39699e-009 0 -3.6325e-017
Spine  23.9296 4.98452 2.82829
Spine1  17.9218 0.677776 15.138
HEad  -33.0002 -47.9324 20.4367
LeftShoulder1  0.955544 -3.93773 -4.9869
LeftArm  18.1698 -35.834 -77.6308
LeftForeArm  8.69897 -77.0091 -71.264
LeftHand  -1.05447 2.21433 37.6941
RightShoulder  1.91196 6.8582 11.3116
RightArm  18.5506 -4.10426 55.7146
RightForeArm  74.6327 68.3083 145.767
RightHand  -1.86137 2.39196 -27.5027
LeftUpLeg  -31.0243 -9.08438 3.75947
LeftLeg  36.961 -9.39183 -7.14994
LeftFoot  -6.58207 0.298773 -6.23709
LeftToes  3.40148e-010 1.80944e-010 1.01921e-010
469
root  -1.88519 36.8591 14.6444 -179.612 -57.1333 179.162
RightUpLeg  -2.54652 -3.54695 -14.1256
RightLeg  41.5355 0.956486 0.620629
RightFoot  -11.9946 0.0942836 30.3446
RightToes  -1.39699e-009 0 -3.6325e-017
Spine  23.3735 4.78949 2.86682
Spine1  18.264 0.526578 14.817
HEad  -32.9281 -47.9533 20.3704
LeftShoulder1  0.962108 -3.95926 -5.04352
LeftArm  18.3081 -35.8681 -77.5811
LeftForeArm  8.24596 -76.9783 -70.8734
LeftHand  -1.01606 2.31097 37.4857
RightShoulder  1.90292 6.89317 11.1455
RightArm  18.7513 -3.98177 56.0931
RightForeArm  74.2011 68.3168 145.735
RightHand  -1.8225 2.15792 -27.7467
LeftUpLeg  -31.179 -9.67956 3.45225
LeftLeg  37.0116 -9.07255 -6.91151
LeftFoot  -6.67641 0.297685 -6.32234
LeftToes  3.40148e-010 1.80944e-010 1.01921e-010
470
root  -2.07486 36.8277 14.6911 -177.883 -57.9556 177.776
RightUpLeg  -2.67492 -4.91529 -15.4767
RightLeg  41.6508 1.47097 1.1137
RightFoot  -11.9657 0.0874252 30.4746
RightToes  -1.39699e-009 0 -3.6325e-017
Spine  21.7859 4.18466 2.93306
Spine1  19.0944 -0.0440929 14.1681
HEad  -32.831 -48.1069 20.3255
LeftShoulder1  0.970705 -3.98192 -5.13463
LeftArm  18.4227 -35.9338 -77.5216
LeftForeArm  7.97996 -76.9571 -70.5951
LeftHand  -0.997865 2.35872 37.4051
RightShoulder  1.87697 6.8694 10.9135
RightArm  18.9936 -3.86267 56.5357
RightForeArm  73.9785 68.3378 145.687
RightHand  -1.81158 2.10779 -27.7642
LeftUpLeg  -31.747 -11.0974 2.54349
LeftLeg  36.9996 -8.5039 -6.4595
LeftFoot  -6.6605 0.296157 -6.26636
LeftToes  3.40148e-010 1.80944e-010 1.01921e-010
471
root  -2.22985 36.7949 14.7139 -176.398 -58.8304 176.581
RightUpLeg  -2.66334 -6.08106 -16.5111
RightLeg  41.7259 1.79888 1.42962
RightFoot  -12.0115 0.100506 30.6264
RightToes  -1.39699e-009 0 -3.6325e-017
Spine  20.477 3.67209 3.02341
Spine1  19.6798 -0.518583 13.6825
HEad  -32.8443 -48.3056 20.4576
LeftShoulder1  0.963393 -3.95179 -5.11852
LeftArm  18.552 -36.0541 -77.6065
LeftForeArm  7.84777 -76.9491 -70.503
LeftHand  -1.0304 2.28585 37.6893
RightShoulder  1.85575 6.76029 10.8981
RightArm  19.1954 -3.70168 56.863
RightForeArm  74.2989 68.3794 145.622
RightHand  -1.83808 2.29064 -27.5135
LeftUpLeg  -32.2543 -12.1733 1.78077
LeftLeg  37.0616 -8.27826 -6.29605
LeftFoot  -6.57505 0.294753 -6.13238
LeftToes  3.40148e-010 1.80944e-010 1.01921e-010
472
root  -2.23242 36.7956 14.6733 -176.622 -59.0604 176.741
RightUpLeg  -2.44469 -5.89298 -16.2286
RightLeg  41.684 1.51233 1.1542
RightFoot  -11.9863 0.0945253 30.7497
RightToes  -1.39699e-009 0 -3.6325e-017
Spine  20.6504 3.74775 3.14504
Spine1  19.4822 -0.384491 13.7104
HEad  -33.0025 -48.5305 20.7624
LeftShoulder1  0.963028 -3.93385 -5.10573
LeftArm  18.6547 -36.2139 -77.726
LeftForeArm  7.80227 -76.9588 -70.6791
LeftHand  -1.06923 2.20221 38.0544
RightShoulder  1.84048 6.63754 10.9742
RightArm  19.4255 -3.52077 57.0975
RightForeArm  74.4277 68.3879 145.612
RightHand  -1.86326 2.38291 -27.5594
LeftUpLeg  -32.171 -11.8395 1.80045
LeftLeg  37.1859 -8.69355 -6.65578
LeftFoot  -6.48618 0.295254 -6.04433
LeftToes  3.40148e-010 1.80944e-010 1.01921e-010
473
root  -2.1661 36.8182 14.6108 -177.449 -59.0049 177.35
RightUpLeg  -2.17576 -5.21755 -15.5088
RightLeg  41.5857 1.03524 0.695916
RightFoot  -11.9129 0.0754044 30.8475
RightToes  -1.39699e-009 0 -3.6325e-017
Spine  21.3723 4.11428 3.14252
Spine1  19.0127 -0.0485288 14.1126
HEad  -33.2 -48.8215 21.037
LeftShoulder1  0.981506 -3.99276 -5.27091
LeftArm  18.681 -36.3688 -77.6998
LeftForeArm  8.00122 -76.9889 -71.1341
LeftHand  -1.06918 2.21161 38.1584
RightShoulder  1.81656 6.58764 10.8103
RightArm  19.6878 -3.41196 57.3678
RightForeArm  74.1357 68.338 145.693
RightHand  -1.85207 2.25449 -27.8382
LeftUpLeg  -31.8135 -11.0337 2.09367
LeftLeg  37.2078 -9.26441 -7.11464
LeftFoot  -6.38996 0.297949 -6.00253
LeftToes  3.40148e-010 1.80944e-010 1.01921e-010
474
root  -2.16638 36.8287 14.5856 -177.1 -59.2923 177.022
RightUpLeg  -2.09691 -5.34085 -15.6085
RightLeg  41.5365 0.955928 0.619173
RightFoot  -11.9263 0.0795503 30.9476
RightToes  -1.39699e-009 0 -3.6325e-017
Spine  21.1627 4.21707 2.96977
Spine1  19.0015 -0.0887497 14.4149
HEad  -33.3247 -49.1184 21.12
LeftShoulder1  1.00744 -4.06042 -5.52606
LeftArm  18.6911 -36.5021 -77.5849
LeftForeArm  8.30457 -77.0127 -71.4557
LeftHand  -1.05589 2.24548 38.0979
RightShoulder  1.78651 6.60221 10.4496
RightArm  19.8594 -3.37819 57.6707
RightForeArm  74.3898 68.308 145.758
RightHand  -1.84568 2.2826 -27.6528
LeftUpLeg  -31.7985 -11.1046 1.91457
LeftLeg  37.0366 -9.4172 -7.19128
LeftFoot  -6.27485 0.301167 -5.95332
LeftToes  3.40148e-010 1.80944e-010 1.01921e-010
475
root  -2.21563 36.8243 14.5925 -175.936 -59.7196 176.094
RightUpLeg  -2.23362 -5.94327 -16.2485
RightLeg  41.542 1.16899 0.821401
RightFoot  -12.0357 0.109557 31.0312
RightToes  -1.39699e-009 0 -3.6325e-017
Spine  20.2917 4.07692 2.80442
Spine1  19.2982 -0.33688 14.4179
HEad  -33.3122 -49.3228 21.0365
LeftShoulder1  1.01091 -4.03805 -5.62201
LeftArm  18.7599 -36.6069 -77.5621
LeftForeArm  8.25557 -76.9963 -71.1834
LeftHand  -1.07669 2.1892 38.1542
RightShoulder  1.76832 6.60711 10.239
RightArm  20.016 -3.28524 57.8742
RightForeArm  75.1115 68.3559 145.698
RightHand  -1.8877 2.56942 -27.2785
LeftUpLeg  -32.0979 -11.8094 1.46311
LeftLeg  36.7956 -9.19215 -6.95238
LeftFoot  -6.17515 0.30445 -5.93043
LeftToes  3.40148e-010 1.80944e-010 1.01921e-010
476
root  -2.2216 36.8258 14.591 -175.356 -59.7797 175.671
RightUpLeg  -2.40087 -6.07173 -16.485
RightLeg  41.5315 1.24789 0.895797
RightFoot  -12.1416 0.138312 31.0474
RightToes  -1.39699e-009 0 -3.6325e-017
Spine  19.8939 4.05026 2.7731
Spine1  19.3471 -0.347226 14.3243
HEad  -33.1529 -49.4605 20.9094
LeftShoulder1  0.991058 -3.95875 -5.48253
LeftArm  18.8257 -36.6322 -77.643
LeftForeArm  7.91181 -76.9588 -70.6447
LeftHand  -1.11475 2.09058 38.3021
RightShoulder  1.76723 6.5789 10.2839
RightArm  20.3133 -3.0637 57.9009
RightForeArm  74.4867 68.3273 145.726
RightHand  -1.90572 2.47342 -27.8576
LeftUpLeg  -32.2761 -12.1863 1.33188
LeftLeg  36.6244 -8.94851 -6.71926
LeftFoot  -6.11723 0.310259 -6.01036
LeftToes  3.40148e-010 1.80944e-010 1.01921e-010
477
root  -2.18563 36.8383 14.5772 -175.451 -59.5406 175.782
RightUpLeg  -2.49688 -5.79234 -16.3248
RightLeg  41.4713 1.18243 0.831661
RightFoot  -12.212 0.156849 30.984
RightToes  -1.39699e-009 0 -3.6325e-017
Spine  20.0305 4.1616 2.81562
Spine1  19.1464 -0.167799 14.2802
HEad  -32.9467 -49.5928 20.8261
LeftShoulder1  0.973345 -3.94189 -5.24869
LeftArm  18.7838 -36.5325 -77.689
LeftForeArm  7.86789 -76.9545 -70.587
LeftHand  -1.12129 2.07552 38.347
RightShoulder  1.77284 6.56425 10.3752
RightArm  20.7184 -2.87331 57.8294
RightForeArm  73.3345 68.2852 145.761
RightHand  -1.81492 1.9756 -28.281
LeftUpLeg  -32.2444 -12.1679 1.48863
LeftLeg  36.5045 -8.79409 -6.56976
LeftFoot  -6.09605 0.320009 -6.18269
LeftToes  3.40148e-010 1.80944e-010 1.01921e-010
478
root  -2.16844 36.8466 14.5703 -175.36 -59.4175 175.724
RightUpLeg  -2.54842 -5.79284 -16.3534
RightLeg  41.4002 1.24786 0.891117
RightFoot  -12.3095 0.182149 30.87
RightToes  -1.39699e-009 0 -3.6325e-017
Spine  20.0205 4.19177 2.81339
Spine1  19.0164 -0.123187 14.2905
HEad  -32.8594 -49.6531 20.7941
LeftShoulder1  0.973375 -4.02414 -5.08793
LeftArm  18.686 -36.3675 -77.6331
LeftForeArm  8.15905 -76.9829 -70.9794
LeftHand  -1.1068 2.11973 38.3667
RightShoulder  1.77679 6.58959 10.3704
RightArm  20.9153 -2.90244 57.8172
RightForeArm  73.827 68.2926 145.766
RightHand  -1.77679 2.02244 -27.5606
LeftUpLeg  -32.2466 -12.2819 1.54432
LeftLeg  36.3805 -8.65637 -6.43321
LeftFoot  -6.10031 0.326822 -6.33672
LeftToes  3.40148e-010 1.80944e-010 1.01921e-010
479
root  -2.1688 36.8463 14.5702 -175.02 -59.4547 175.48
RightUpLeg  -2.61775 -6.08249 -16.5672
RightLeg  41.3609 1.46398 1.09358
RightFoot  -12.4426 0.216616 30.7413
RightToes  -1.39699e-009 0 -3.6325e-017
Spine  19.8252 4.14312 2.76045
Spine1  18.9329 -0.215681 14.3904
HEad  -32.9464 -49.5656 20.7667
LeftShoulder1  0.985442 -4.11312 -5.09635
LeftArm  18.6912 -36.2648 -77.5331
LeftForeArm  8.13301 -76.9917 -71.1407
LeftHand  -1.11712 2.10805 38.5706
RightShoulder  1.77614 6.62149 10.3129
RightArm  20.8381 -3.108 57.941
RightForeArm  75.0348 68.3334 145.736
RightHand  -1.84403 2.45673 -27.0371
LeftUpLeg  -32.3618 -12.5282 1.49207
LeftLeg  36.2802 -8.54362 -6.32258
LeftFoot  -6.12413 0.327696 -6.38001
LeftToes  3.40148e-010 1.80944e-010 1.01921e-010
480
root  -2.15011 36.8454 14.5671 -174.889 -59.4483 175.441
RightUpLeg  -2.73329 -6.25205 -16.6192
RightLeg  41.3783 1.62805 1.24909
RightFoot  -12.5294 0.238735 30.6387
RightToes  -1.39699e-009 0 -3.6325e-017
Spine  19.8388 4.14678 2.72425
Spine1  18.7189 -0.255024 14.5774
HEad  -33.1063 -49.4261 20.7203
LeftShoulder1  0.995774 -4.11033 -5.25509
LeftArm  18.8322 -36.2673 -77.4725
LeftForeArm  7.68783 -76.9748 -70.9875
LeftHand  -1.13964 2.06617 38.8316
RightShoulder  1.77504 6.62402 10.2788
RightArm  20.8073 -3.32392 58.0838
RightForeArm  74.5638 68.3481 145.691
RightHand  -1.84032 2.19641 -27.8815
LeftUpLeg  -32.4793 -12.6246 1.54432
LeftLeg  36.2359 -8.47519 -6.25959
LeftFoot  -6.14968 0.323571 -6.33895
LeftToes  3.40148e-010 1.80944e-010 1.01921e-010
